<?xml version="1.0" standalone="no"?>
<!DOCTYPE svg PUBLIC "-//W3C//DTD SVG 1.1//EN"
"http://www.w3.org/Graphics/SVG/1.1/DTD/svg11.dtd">
<svg height="1200.0" version="1.1" width="1600.0" xmlns="http://www.w3.org/2000/svg"><g><rect fill="#f9f9f9" height="1200.0" width="1600.0" x="0" y="0" /><g><g transform="translate(0 0)"><g><rect fill="#f9f9f9" height="600.0" width="800.0" x="0" y="0" /><g transform="translate(40 40)"><g transform="translate(64 0)"><text fill="#333" font-family="Monaco" font-size="16" x="0" y="0">Total Cost by state</text></g><g transform="translate(0 20)"><g transform="translate(64 0)"><g class="axis bottom"><g class="tick"><line stroke="#eee" stroke-width="1" x1="82" x2="82" y1="0" y2="482.0" /><text dy="1em" fill="#9c9c9c" font-family="Monaco" text-anchor="middle" x="82" y="486.0">AZ</text></g><g class="tick"><line stroke="#eee" stroke-width="1" x1="246" x2="246" y1="0" y2="482.0" /><text dy="1em" fill="#9c9c9c" font-family="Monaco" text-anchor="middle" x="246" y="486.0">CA</text></g><g class="tick"><line stroke="#eee" stroke-width="1" x1="410" x2="410" y1="0" y2="482.0" /><text dy="1em" fill="#9c9c9c" font-family="Monaco" text-anchor="middle" x="410" y="486.0">NY</text></g><g class="tick"><line stroke="#eee" stroke-width="1" x1="574" x2="574" y1="0" y2="482.0" /><text dy="1em" fill="#9c9c9c" font-family="Monaco" text-anchor="middle" x="574" y="486.0">NJ</text></g></g><g class="axis left"><g class="tick"><line stroke="#eee" stroke-width="1" x1="-4" x2="656.0" y1="318.6666666666666666666666667" y2="318.6666666666666666666666667" /><text dy="0.32em" fill="#9c9c9c" font-family="Monaco" text-anchor="end" x="-8" y="318.6666666666666666666666667">2,500,000</text></g><g class="tick"><line stroke="#eee" stroke-width="1" x1="-4" x2="656.0" y1="159.3333333333333333333333333" y2="159.3333333333333333333333333" /><text dy="0.32em" fill="#9c9c9c" font-family="Monaco" text-anchor="end" x="-8" y="159.3333333333333333333333333">5,000,000</text></g><g class="tick"><line stroke="#eee" stroke-width="1" x1="-4" x2="656.0" y1="0" y2="0" /><text dy="0.32em" fill="#9c9c9c" font-family="Monaco" text-anchor="end" x="-8" y="0">7,500,000</text></g><g class="tick"><line stroke="#a8a8a8" stroke-width="1" x1="-4" x2="656.0" y1="478" y2="478" /><text dy="0.32em" fill="#9c9c9c" font-family="Monaco" text-anchor="end" x="-8" y="478">0</text></g></g><g><g class="series columns"><rect fill="#e41a1c" height="55.9832644" width="147.6" x="8.2" y="422.0167356" /><rect fill="#e41a1c" height="418.3025162666666666666666667" width="147.6" x="172.2" y="59.6974837333333333333333333" /><rect fill="#e41a1c" height="276.5402717333333333333333333" width="147.6" x="336.2" y="201.4597282666666666666666667" /><rect fill="#e41a1c" height="135.4746325333333333333333333" width="147.6" x="500.2" y="342.5253674666666666666666667" /></g></g></g></g></g></g></g><g transform="translate(800 0)"><g><rect fill="#f9f9f9" height="600.0" width="800.0" x="0" y="0" /><g transform="translate(40 40)"><g transform="translate(16 0)"><text fill="#333" font-family="Monaco" font-size="16" x="0" y="0">Cost per watt by state</text></g><g transform="translate(0 20)"><g transform="translate(16 0)"><g class="axis bottom"><g class="tick"><line stroke="#eee" stroke-width="1" x1="88" x2="88" y1="0" y2="482.0" /><text dy="1em" fill="#9c9c9c" font-family="Monaco" text-anchor="middle" x="88" y="486.0">AZ</text></g><g class="tick"><line stroke="#eee" stroke-width="1" x1="264" x2="264" y1="0" y2="482.0" /><text dy="1em" fill="#9c9c9c" font-family="Monaco" text-anchor="middle" x="264" y="486.0">CA</text></g><g class="tick"><line stroke="#eee" stroke-width="1" x1="440" x2="440" y1="0" y2="482.0" /><text dy="1em" fill="#9c9c9c" font-family="Monaco" text-anchor="middle" x="440" y="486.0">NY</text></g><g class="tick"><line stroke="#eee" stroke-width="1" x1="616" x2="616" y1="0" y2="482.0" /><text dy="1em" fill="#9c9c9c" font-family="Monaco" text-anchor="middle" x="616" y="486.0">NJ</text></g></g><g class="axis left"><g class="tick"><line stroke="#eee" stroke-width="1" x1="-4" x2="704.0" y1="358.50" y2="358.50" /><text dy="0.32em" fill="#9c9c9c" font-family="Monaco" text-anchor="end" x="-8" y="358.50">1</text></g><g class="tick"><line stroke="#eee" stroke-width="1" x1="-4" x2="704.0" y1="239.0" y2="239.0" /><text dy="0.32em" fill="#9c9c9c" font-family="Monaco" text-anchor="end" x="-8" y="239.0">2</text></g><g class="tick"><line stroke="#eee" stroke-width="1" x1="-4" x2="704.0" y1="119.50" y2="119.50" /><text dy="0.32em" fill="#9c9c9c" font-family="Monaco" text-anchor="end" x="-8" y="119.50">3</text></g><g class="tick"><line stroke="#eee" stroke-width="1" x1="-4" x2="704.0" y1="0" y2="0" /><text dy="0.32em" fill="#9c9c9c" font-family="Monaco" text-anchor="end" x="-8" y="0">4</text></g><g class="tick"><line stroke="#a8a8a8" stroke-width="1" x1="-4" x2="704.0" y1="478" y2="478" /><text dy="0.32em" fill="#9c9c9c" font-family="Monaco" text-anchor="end" x="-8" y="478">0</text></g></g><g><g class="series columns"><rect fill="#e41a1c" height="330.3497112509833524285340900" width="158.4" x="8.8" y="147.6502887490166475714659100" /><rect fill="#e41a1c" height="386.3593550802455918180555728" width="158.4" x="184.8" y="91.6406449197544081819444272" /><rect fill="#e41a1c" height="351.7560288860096044949443694" width="158.4" x="360.8" y="126.2439711139903955050556306" /><rect fill="#e41a1c" height="353.0485983126937616916052320" width="158.4" x="536.8" y="124.9514016873062383083947680" /></g></g></g></g></g></g></g><g transform="translate(0 600)"><g><rect fill="#f9f9f9" height="600.0" width="800.0" x="0" y="0" /><g transform="translate(40 40)"><g transform="translate(48 0)"><text fill="#333" font-family="Monaco" font-size="16" x="0" y="0">Cost per system by state</text></g><g transform="translate(0 20)"><g transform="translate(48 0)"><g class="axis bottom"><g class="tick"><line stroke="#eee" stroke-width="1" x1="84" x2="84" y1="0" y2="482.0" /><text dy="1em" fill="#9c9c9c" font-family="Monaco" text-anchor="middle" x="84" y="486.0">AZ</text></g><g class="tick"><line stroke="#eee" stroke-width="1" x1="252" x2="252" y1="0" y2="482.0" /><text dy="1em" fill="#9c9c9c" font-family="Monaco" text-anchor="middle" x="252" y="486.0">CA</text></g><g class="tick"><line stroke="#eee" stroke-width="1" x1="420" x2="420" y1="0" y2="482.0" /><text dy="1em" fill="#9c9c9c" font-family="Monaco" text-anchor="middle" x="420" y="486.0">NY</text></g><g class="tick"><line stroke="#eee" stroke-width="1" x1="588" x2="588" y1="0" y2="482.0" /><text dy="1em" fill="#9c9c9c" font-family="Monaco" text-anchor="middle" x="588" y="486.0">NJ</text></g></g><g class="axis left"><g class="tick"><line stroke="#eee" stroke-width="1" x1="-4" x2="672.0" y1="318.6666666666666666666666667" y2="318.6666666666666666666666667" /><text dy="0.32em" fill="#9c9c9c" font-family="Monaco" text-anchor="end" x="-8" y="318.6666666666666666666666667">10,000</text></g><g class="tick"><line stroke="#eee" stroke-width="1" x1="-4" x2="672.0" y1="159.3333333333333333333333333" y2="159.3333333333333333333333333" /><text dy="0.32em" fill="#9c9c9c" font-family="Monaco" text-anchor="end" x="-8" y="159.3333333333333333333333333">20,000</text></g><g class="tick"><line stroke="#eee" stroke-width="1" x1="-4" x2="672.0" y1="0" y2="0" /><text dy="0.32em" fill="#9c9c9c" font-family="Monaco" text-anchor="end" x="-8" y="0">30,000</text></g><g class="tick"><line stroke="#a8a8a8" stroke-width="1" x1="-4" x2="672.0" y1="478" y2="478" /><text dy="0.32em" fill="#9c9c9c" font-family="Monaco" text-anchor="end" x="-8" y="478">0</text></g></g><g><g class="series columns"><rect fill="#e41a1c" height="279.9163220000000185488412778" width="151.2" x="8.4" y="198.0836779999999814511587222" /><rect fill="#e41a1c" height="348.5854302222222114020648102" width="151.2" x="176.4" y="129.4145697777777885979351898" /><rect fill="#e41a1c" height="345.6753396666666597108511875" width="151.2" x="344.4" y="132.3246603333333402891488125" /><rect fill="#e41a1c" height="338.6865813333333263775178542" width="151.2" x="512.4" y="139.3134186666666736224821458" /></g></g></g></g></g></g></g></g></g></svg>