<?xml version="1.0" standalone="no"?>
<!DOCTYPE svg PUBLIC "-//W3C//DTD SVG 1.1//EN"
"http://www.w3.org/Graphics/SVG/1.1/DTD/svg11.dtd">
<svg height="1200.0" version="1.1" width="1600.0" xmlns="http://www.w3.org/2000/svg"><g><rect fill="#f9f9f9" height="1200.0" width="1600.0" x="0" y="0" /><g><g transform="translate(0 0)"><g><rect fill="#f9f9f9" height="600.0" width="800.0" x="0" y="0" /><g transform="translate(40 40)"><g transform="translate(64 0)"><text fill="#333" font-family="Monaco" font-size="16" x="0" y="0">Total NPV by state</text></g><g transform="translate(0 20)"><g transform="translate(64 0)"><g class="axis bottom"><g class="tick"><line stroke="#eee" stroke-width="1" x1="82" x2="82" y1="0" y2="482.0" /><text dy="1em" fill="#9c9c9c" font-family="Monaco" text-anchor="middle" x="82" y="486.0">AZ</text></g><g class="tick"><line stroke="#eee" stroke-width="1" x1="246" x2="246" y1="0" y2="482.0" /><text dy="1em" fill="#9c9c9c" font-family="Monaco" text-anchor="middle" x="246" y="486.0">CA</text></g><g class="tick"><line stroke="#eee" stroke-width="1" x1="410" x2="410" y1="0" y2="482.0" /><text dy="1em" fill="#9c9c9c" font-family="Monaco" text-anchor="middle" x="410" y="486.0">NY</text></g><g class="tick"><line stroke="#eee" stroke-width="1" x1="574" x2="574" y1="0" y2="482.0" /><text dy="1em" fill="#9c9c9c" font-family="Monaco" text-anchor="middle" x="574" y="486.0">NJ</text></g></g><g class="axis left"><g class="tick"><line stroke="#eee" stroke-width="1" x1="-4" x2="656.0" y1="358.50" y2="358.50" /><text dy="0.32em" fill="#9c9c9c" font-family="Monaco" text-anchor="end" x="-8" y="358.50">1,000,000</text></g><g class="tick"><line stroke="#eee" stroke-width="1" x1="-4" x2="656.0" y1="239.0" y2="239.0" /><text dy="0.32em" fill="#9c9c9c" font-family="Monaco" text-anchor="end" x="-8" y="239.0">2,000,000</text></g><g class="tick"><line stroke="#eee" stroke-width="1" x1="-4" x2="656.0" y1="119.50" y2="119.50" /><text dy="0.32em" fill="#9c9c9c" font-family="Monaco" text-anchor="end" x="-8" y="119.50">3,000,000</text></g><g class="tick"><line stroke="#eee" stroke-width="1" x1="-4" x2="656.0" y1="0" y2="0" /><text dy="0.32em" fill="#9c9c9c" font-family="Monaco" text-anchor="end" x="-8" y="0">4,000,000</text></g><g class="tick"><line stroke="#a8a8a8" stroke-width="1" x1="-4" x2="656.0" y1="478" y2="478" /><text dy="0.32em" fill="#9c9c9c" font-family="Monaco" text-anchor="end" x="-8" y="478">0</text></g></g><g><g class="series columns"><rect fill="#e41a1c" height="30.3520337828064758796244860" width="147.6" x="8.2" y="447.6479662171935241203755140" /><rect fill="#e41a1c" height="450.8244729376341989263892174" width="147.6" x="172.2" y="27.1755270623658010736107826" /><rect fill="#e41a1c" height="191.2927811143204660620540380" width="147.6" x="336.2" y="286.7072188856795339379459620" /><rect fill="#e41a1c" height="44.4918184732226281776092946" width="147.6" x="500.2" y="433.5081815267773718223907054" /></g></g></g></g></g></g></g><g transform="translate(800 0)"><g><rect fill="#f9f9f9" height="600.0" width="800.0" x="0" y="0" /><g transform="translate(40 40)"><g transform="translate(32 0)"><text fill="#333" font-family="Monaco" font-size="16" x="0" y="0">NPV per watt by state</text></g><g transform="translate(0 20)"><g transform="translate(32 0)"><g class="axis bottom"><g class="tick"><line stroke="#eee" stroke-width="1" x1="86" x2="86" y1="0" y2="482.0" /><text dy="1em" fill="#9c9c9c" font-family="Monaco" text-anchor="middle" x="86" y="486.0">AZ</text></g><g class="tick"><line stroke="#eee" stroke-width="1" x1="258" x2="258" y1="0" y2="482.0" /><text dy="1em" fill="#9c9c9c" font-family="Monaco" text-anchor="middle" x="258" y="486.0">CA</text></g><g class="tick"><line stroke="#eee" stroke-width="1" x1="430" x2="430" y1="0" y2="482.0" /><text dy="1em" fill="#9c9c9c" font-family="Monaco" text-anchor="middle" x="430" y="486.0">NY</text></g><g class="tick"><line stroke="#eee" stroke-width="1" x1="602" x2="602" y1="0" y2="482.0" /><text dy="1em" fill="#9c9c9c" font-family="Monaco" text-anchor="middle" x="602" y="486.0">NJ</text></g></g><g class="axis left"><g class="tick"><line stroke="#eee" stroke-width="1" x1="-4" x2="688.0" y1="358.50" y2="358.50" /><text dy="0.32em" fill="#9c9c9c" font-family="Monaco" text-anchor="end" x="-8" y="358.50">0.5</text></g><g class="tick"><line stroke="#eee" stroke-width="1" x1="-4" x2="688.0" y1="239.0" y2="239.0" /><text dy="0.32em" fill="#9c9c9c" font-family="Monaco" text-anchor="end" x="-8" y="239.0">1</text></g><g class="tick"><line stroke="#eee" stroke-width="1" x1="-4" x2="688.0" y1="119.50" y2="119.50" /><text dy="0.32em" fill="#9c9c9c" font-family="Monaco" text-anchor="end" x="-8" y="119.50">1.5</text></g><g class="tick"><line stroke="#eee" stroke-width="1" x1="-4" x2="688.0" y1="0" y2="0" /><text dy="0.32em" fill="#9c9c9c" font-family="Monaco" text-anchor="end" x="-8" y="0">2</text></g><g class="tick"><line stroke="#a8a8a8" stroke-width="1" x1="-4" x2="688.0" y1="478" y2="478" /><text dy="0.32em" fill="#9c9c9c" font-family="Monaco" text-anchor="end" x="-8" y="478">0</text></g></g><g><g class="series columns"><rect fill="#e41a1c" height="191.0434856510241886651257914" width="154.8" x="8.6" y="286.9565143489758113348742086" /><rect fill="#e41a1c" height="444.1576663654883554421815006" width="154.8" x="180.6" y="33.8423336345116445578184994" /><rect fill="#e41a1c" height="259.5436866828854773903145770" width="154.8" x="352.6" y="218.4563133171145226096854230" /><rect fill="#e41a1c" height="123.6759884730090303106564420" width="154.8" x="524.6" y="354.3240115269909696893435580" /></g></g></g></g></g></g></g><g transform="translate(0 600)"><g><rect fill="#f9f9f9" height="600.0" width="800.0" x="0" y="0" /><g transform="translate(40 40)"><g transform="translate(48 0)"><text fill="#333" font-family="Monaco" font-size="16" x="0" y="0">NPV per system by state</text></g><g transform="translate(0 20)"><g transform="translate(48 0)"><g class="axis bottom"><g class="tick"><line stroke="#eee" stroke-width="1" x1="84" x2="84" y1="0" y2="482.0" /><text dy="1em" fill="#9c9c9c" font-family="Monaco" text-anchor="middle" x="84" y="486.0">AZ</text></g><g class="tick"><line stroke="#eee" stroke-width="1" x1="252" x2="252" y1="0" y2="482.0" /><text dy="1em" fill="#9c9c9c" font-family="Monaco" text-anchor="middle" x="252" y="486.0">CA</text></g><g class="tick"><line stroke="#eee" stroke-width="1" x1="420" x2="420" y1="0" y2="482.0" /><text dy="1em" fill="#9c9c9c" font-family="Monaco" text-anchor="middle" x="420" y="486.0">NY</text></g><g class="tick"><line stroke="#eee" stroke-width="1" x1="588" x2="588" y1="0" y2="482.0" /><text dy="1em" fill="#9c9c9c" font-family="Monaco" text-anchor="middle" x="588" y="486.0">NJ</text></g></g><g class="axis left"><g class="tick"><line stroke="#eee" stroke-width="1" x1="-4" x2="672.0" y1="318.6666666666666666666666667" y2="318.6666666666666666666666667" /><text dy="0.32em" fill="#9c9c9c" font-family="Monaco" text-anchor="end" x="-8" y="318.6666666666666666666666667">5,000</text></g><g class="tick"><line stroke="#eee" stroke-width="1" x1="-4" x2="672.0" y1="159.3333333333333333333333333" y2="159.3333333333333333333333333" /><text dy="0.32em" fill="#9c9c9c" font-family="Monaco" text-anchor="end" x="-8" y="159.3333333333333333333333333">10,000</text></g><g class="tick"><line stroke="#eee" stroke-width="1" x1="-4" x2="672.0" y1="0" y2="0" /><text dy="0.32em" fill="#9c9c9c" font-family="Monaco" text-anchor="end" x="-8" y="0">15,000</text></g><g class="tick"><line stroke="#a8a8a8" stroke-width="1" x1="-4" x2="672.0" y1="478" y2="478" /><text dy="0.32em" fill="#9c9c9c" font-family="Monaco" text-anchor="end" x="-8" y="478">0</text></g></g><g><g class="series columns"><rect fill="#e41a1c" height="161.8775135083012058506331717" width="151.2" x="8.4" y="316.1224864916987941493668283" /><rect fill="#e41a1c" height="400.7328648334526158578228207" width="151.2" x="176.4" y="77.2671351665473841421771793" /><rect fill="#e41a1c" height="255.0570414857606341684004292" width="151.2" x="344.4" y="222.9429585142393658315995708" /><rect fill="#e41a1c" height="118.6448492619270032567631764" width="151.2" x="512.4" y="359.3551507380729967432368236" /></g></g></g></g></g></g></g></g></g></svg>