<?xml version="1.0" standalone="no"?>
<!DOCTYPE svg PUBLIC "-//W3C//DTD SVG 1.1//EN"
"http://www.w3.org/Graphics/SVG/1.1/DTD/svg11.dtd">
<svg height="600" version="1.1" width="800" xmlns="http://www.w3.org/2000/svg"><g><rect fill="#f9f9f9" height="600" width="800" x="0" y="0" /><g transform="translate(40 40)"><g transform="translate(72 0)"><text fill="#333" font-family="Monaco" font-size="16" x="0" y="0">Aggregate Portfolio Values</text></g><g transform="translate(0 20)"><g transform="translate(72 0)"><g class="axis bottom"><g class="tick"><line stroke="#eee" stroke-width="1" x1="108" x2="108" y1="0" y2="482.0" /><text dy="1em" fill="#9c9c9c" font-family="Monaco" text-anchor="middle" x="108" y="486.0">NPV</text></g><g class="tick"><line stroke="#eee" stroke-width="1" x1="324" x2="324" y1="0" y2="482.0" /><text dy="1em" fill="#9c9c9c" font-family="Monaco" text-anchor="middle" x="324" y="486.0">PV</text></g><g class="tick"><line stroke="#eee" stroke-width="1" x1="540" x2="540" y1="0" y2="482.0" /><text dy="1em" fill="#9c9c9c" font-family="Monaco" text-anchor="middle" x="540" y="486.0">Cost</text></g></g><g class="axis left"><g class="tick"><line stroke="#eee" stroke-width="1" x1="-4" x2="648.0" y1="358.50" y2="358.50" /><text dy="0.32em" fill="#9c9c9c" font-family="Monaco" text-anchor="end" x="-8" y="358.50">5,000,000</text></g><g class="tick"><line stroke="#eee" stroke-width="1" x1="-4" x2="648.0" y1="239.0" y2="239.0" /><text dy="0.32em" fill="#9c9c9c" font-family="Monaco" text-anchor="end" x="-8" y="239.0">10,000,000</text></g><g class="tick"><line stroke="#eee" stroke-width="1" x1="-4" x2="648.0" y1="119.50" y2="119.50" /><text dy="0.32em" fill="#9c9c9c" font-family="Monaco" text-anchor="end" x="-8" y="119.50">15,000,000</text></g><g class="tick"><line stroke="#eee" stroke-width="1" x1="-4" x2="648.0" y1="0" y2="0" /><text dy="0.32em" fill="#9c9c9c" font-family="Monaco" text-anchor="end" x="-8" y="0">20,000,000</text></g><g class="tick"><line stroke="#a8a8a8" stroke-width="1" x1="-4" x2="648.0" y1="478" y2="478" /><text dy="0.32em" fill="#9c9c9c" font-family="Monaco" text-anchor="end" x="-8" y="478">0</text></g></g><g><g class="series columns"><rect fill="#e41a1c" height="143.3922212615966619923710823" width="194.4" x="10.8" y="334.6077787384033380076289177" /><rect fill="#e41a1c" height="475.7549781115967065095901490" width="194.4" x="226.8" y="2.2450218884032934904098510" /><rect fill="#e41a1c" height="332.362756850" width="194.4" x="442.8" y="145.637243150" /></g></g></g></g></g></g></svg>