<?xml version="1.0" standalone="no"?>
<!DOCTYPE svg PUBLIC "-//W3C//DTD SVG 1.1//EN"
"http://www.w3.org/Graphics/SVG/1.1/DTD/svg11.dtd">
<svg height="1200.0" version="1.1" width="1600.0" xmlns="http://www.w3.org/2000/svg"><g><rect fill="#f9f9f9" height="1200.0" width="1600.0" x="0" y="0" /><g><g transform="translate(0 0)"><g><rect fill="#f9f9f9" height="600.0" width="800.0" x="0" y="0" /><g transform="translate(40 40)"><g transform="translate(72 0)"><text fill="#333" font-family="Monaco" font-size="16" x="0" y="0">Total PV by state</text></g><g transform="translate(0 20)"><g transform="translate(72 0)"><g class="axis bottom"><g class="tick"><line stroke="#eee" stroke-width="1" x1="81" x2="81" y1="0" y2="482.0" /><text dy="1em" fill="#9c9c9c" font-family="Monaco" text-anchor="middle" x="81" y="486.0">AZ</text></g><g class="tick"><line stroke="#eee" stroke-width="1" x1="243" x2="243" y1="0" y2="482.0" /><text dy="1em" fill="#9c9c9c" font-family="Monaco" text-anchor="middle" x="243" y="486.0">CA</text></g><g class="tick"><line stroke="#eee" stroke-width="1" x1="405" x2="405" y1="0" y2="482.0" /><text dy="1em" fill="#9c9c9c" font-family="Monaco" text-anchor="middle" x="405" y="486.0">NY</text></g><g class="tick"><line stroke="#eee" stroke-width="1" x1="567" x2="567" y1="0" y2="482.0" /><text dy="1em" fill="#9c9c9c" font-family="Monaco" text-anchor="middle" x="567" y="486.0">NJ</text></g></g><g class="axis left"><g class="tick"><line stroke="#eee" stroke-width="1" x1="-4" x2="648.0" y1="382.4" y2="382.4" /><text dy="0.32em" fill="#9c9c9c" font-family="Monaco" text-anchor="end" x="-8" y="382.4">2,500,000</text></g><g class="tick"><line stroke="#eee" stroke-width="1" x1="-4" x2="648.0" y1="286.8" y2="286.8" /><text dy="0.32em" fill="#9c9c9c" font-family="Monaco" text-anchor="end" x="-8" y="286.8">5,000,000</text></g><g class="tick"><line stroke="#eee" stroke-width="1" x1="-4" x2="648.0" y1="191.2" y2="191.2" /><text dy="0.32em" fill="#9c9c9c" font-family="Monaco" text-anchor="end" x="-8" y="191.2">7,500,000</text></g><g class="tick"><line stroke="#eee" stroke-width="1" x1="-4" x2="648.0" y1="95.6" y2="95.6" /><text dy="0.32em" fill="#9c9c9c" font-family="Monaco" text-anchor="end" x="-8" y="95.6">10,000,000</text></g><g class="tick"><line stroke="#eee" stroke-width="1" x1="-4" x2="648.0" y1="0" y2="0" /><text dy="0.32em" fill="#9c9c9c" font-family="Monaco" text-anchor="end" x="-8" y="0">12,500,000</text></g><g class="tick"><line stroke="#a8a8a8" stroke-width="1" x1="-4" x2="648.0" y1="478" y2="478" /><text dy="0.32em" fill="#9c9c9c" font-family="Monaco" text-anchor="end" x="-8" y="478">0</text></g></g><g><g class="series columns"><rect fill="#e41a1c" height="43.3026094504980811849236488" width="145.8" x="8.1" y="434.6973905495019188150763512" /><rect fill="#e41a1c" height="395.2453411000430148839950561" width="145.8" x="170.1" y="82.7546588999569851160049439" /><rect fill="#e41a1c" height="227.1378529965825313329696655" width="145.8" x="332.1" y="250.8621470034174686670303345" /><rect fill="#e41a1c" height="95.5221614314312365651130676" width="145.8" x="494.1" y="382.4778385685687634348869324" /></g></g></g></g></g></g></g><g transform="translate(800 0)"><g><rect fill="#f9f9f9" height="600.0" width="800.0" x="0" y="0" /><g transform="translate(40 40)"><g transform="translate(16 0)"><text fill="#333" font-family="Monaco" font-size="16" x="0" y="0">PV per watt by state</text></g><g transform="translate(0 20)"><g transform="translate(16 0)"><g class="axis bottom"><g class="tick"><line stroke="#eee" stroke-width="1" x1="88" x2="88" y1="0" y2="482.0" /><text dy="1em" fill="#9c9c9c" font-family="Monaco" text-anchor="middle" x="88" y="486.0">AZ</text></g><g class="tick"><line stroke="#eee" stroke-width="1" x1="264" x2="264" y1="0" y2="482.0" /><text dy="1em" fill="#9c9c9c" font-family="Monaco" text-anchor="middle" x="264" y="486.0">CA</text></g><g class="tick"><line stroke="#eee" stroke-width="1" x1="440" x2="440" y1="0" y2="482.0" /><text dy="1em" fill="#9c9c9c" font-family="Monaco" text-anchor="middle" x="440" y="486.0">NY</text></g><g class="tick"><line stroke="#eee" stroke-width="1" x1="616" x2="616" y1="0" y2="482.0" /><text dy="1em" fill="#9c9c9c" font-family="Monaco" text-anchor="middle" x="616" y="486.0">NJ</text></g></g><g class="axis left"><g class="tick"><line stroke="#eee" stroke-width="1" x1="-4" x2="704.0" y1="318.6666666666666666666666667" y2="318.6666666666666666666666667" /><text dy="0.32em" fill="#9c9c9c" font-family="Monaco" text-anchor="end" x="-8" y="318.6666666666666666666666667">2</text></g><g class="tick"><line stroke="#eee" stroke-width="1" x1="-4" x2="704.0" y1="159.3333333333333333333333333" y2="159.3333333333333333333333333" /><text dy="0.32em" fill="#9c9c9c" font-family="Monaco" text-anchor="end" x="-8" y="159.3333333333333333333333333">4</text></g><g class="tick"><line stroke="#eee" stroke-width="1" x1="-4" x2="704.0" y1="0" y2="0" /><text dy="0.32em" fill="#9c9c9c" font-family="Monaco" text-anchor="end" x="-8" y="0">6</text></g><g class="tick"><line stroke="#a8a8a8" stroke-width="1" x1="-4" x2="704.0" y1="478" y2="478" /><text dy="0.32em" fill="#9c9c9c" font-family="Monaco" text-anchor="end" x="-8" y="478">0</text></g></g><g><g class="series columns"><rect fill="#e41a1c" height="283.9143027176636930875019971" width="158.4" x="8.8" y="194.0856972823363069124980029" /><rect fill="#e41a1c" height="405.6254588419932150718712668" width="158.4" x="184.8" y="72.3745411580067849281287332" /><rect fill="#e41a1c" height="321.0185814849681757247405282" width="158.4" x="360.8" y="156.9814185150318242752594718" /><rect fill="#e41a1c" height="276.5910616994655090531788725" width="158.4" x="536.8" y="201.4089383005344909468211275" /></g></g></g></g></g></g></g><g transform="translate(0 600)"><g><rect fill="#f9f9f9" height="600.0" width="800.0" x="0" y="0" /><g transform="translate(40 40)"><g transform="translate(48 0)"><text fill="#333" font-family="Monaco" font-size="16" x="0" y="0">PV per system by state</text></g><g transform="translate(0 20)"><g transform="translate(48 0)"><g class="axis bottom"><g class="tick"><line stroke="#eee" stroke-width="1" x1="84" x2="84" y1="0" y2="482.0" /><text dy="1em" fill="#9c9c9c" font-family="Monaco" text-anchor="middle" x="84" y="486.0">AZ</text></g><g class="tick"><line stroke="#eee" stroke-width="1" x1="252" x2="252" y1="0" y2="482.0" /><text dy="1em" fill="#9c9c9c" font-family="Monaco" text-anchor="middle" x="252" y="486.0">CA</text></g><g class="tick"><line stroke="#eee" stroke-width="1" x1="420" x2="420" y1="0" y2="482.0" /><text dy="1em" fill="#9c9c9c" font-family="Monaco" text-anchor="middle" x="420" y="486.0">NY</text></g><g class="tick"><line stroke="#eee" stroke-width="1" x1="588" x2="588" y1="0" y2="482.0" /><text dy="1em" fill="#9c9c9c" font-family="Monaco" text-anchor="middle" x="588" y="486.0">NJ</text></g></g><g class="axis left"><g class="tick"><line stroke="#eee" stroke-width="1" x1="-4" x2="672.0" y1="358.50" y2="358.50" /><text dy="0.32em" fill="#9c9c9c" font-family="Monaco" text-anchor="end" x="-8" y="358.50">10,000</text></g><g class="tick"><line stroke="#eee" stroke-width="1" x1="-4" x2="672.0" y1="239.0" y2="239.0" /><text dy="0.32em" fill="#9c9c9c" font-family="Monaco" text-anchor="end" x="-8" y="239.0">20,000</text></g><g class="tick"><line stroke="#eee" stroke-width="1" x1="-4" x2="672.0" y1="119.50" y2="119.50" /><text dy="0.32em" fill="#9c9c9c" font-family="Monaco" text-anchor="end" x="-8" y="119.50">30,000</text></g><g class="tick"><line stroke="#eee" stroke-width="1" x1="-4" x2="672.0" y1="0" y2="0" /><text dy="0.32em" fill="#9c9c9c" font-family="Monaco" text-anchor="end" x="-8" y="0">40,000</text></g><g class="tick"><line stroke="#a8a8a8" stroke-width="1" x1="-4" x2="672.0" y1="478" y2="478" /><text dy="0.32em" fill="#9c9c9c" font-family="Monaco" text-anchor="end" x="-8" y="478">0</text></g></g><g><g class="series columns"><rect fill="#e41a1c" height="270.6413090656129987110034563" width="151.2" x="8.4" y="207.3586909343870012889965437" /><rect fill="#e41a1c" height="411.7138969792114981828490272" width="151.2" x="176.4" y="66.2861030207885018171509728" /><rect fill="#e41a1c" height="354.9028953071601999909034930" width="151.2" x="344.4" y="123.0971046928398000090965070" /><rect fill="#e41a1c" height="298.5067544732226264386554248" width="151.2" x="512.4" y="179.4932455267773735613445752" /></g></g></g></g></g></g></g></g></g></svg>